<svg xmlns="http://www.w3.org/2000/svg" width="512" height="512" viewBox="0 0 360 360">
  <g transform="translate(0,360) scale(0.1,-0.1)" fill="#012f45" stroke="none">
    <path d="M1 2778 c1 -493 5 -797 10 -758 105 820 749 1464 1569 1569 39 5 -265 9 -757 10 l-823 1 1 -822z"/>
    <path d="M2020 3589 c820 -105 1464 -749 1569 -1569 5 -39 9 265 10 758 l1 822 -822 -1 c-493 -1 -797 -5 -758 -10z"/>
    <path d="M1590 3440 c-708 -97 -1259 -613 -1411 -1320 -20 -91 -23 -134 -23 -320 0 -186 3 -229 23 -320 143 -669 632 -1158 1301 -1301 91 -20 134 -23 320 -23 186 0 229 3 320 23 669 143 1158 632 1301 1301 20 91 23 134 23 320 0 186 -3 229 -23 320 -143 667 -635 1160 -1296 1300 -113 24 -421 35 -535 20z m512 -169 c591 -127 1040 -578 1170 -1174 32 -148 32 -446 0 -594 -130 -599 -576 -1045 -1175 -1175 -148 -32 -446 -32 -594 0 -599 130 -1045 576 -1175 1175 -32 148 -32 446 0 594 136 626 619 1085 1248 1188 127 21 397 13 526 -14z"/>
    <path d="M1590 3135 c-433 -69 -811 -351 -1006 -750 -325 -667 -43 -1472 631 -1801 667 -325 1473 -42 1801 631 325 667 43 1472 -631 1801 -241 117 -530 161 -795 119z m400 -150 c440 -72 806 -384 949 -811 185 -551 -67 -1169 -585 -1436 -660 -341 -1457 -17 -1693 688 -185 552 67 1169 587 1437 232 120 490 162 742 122z"/>
    <path d="M1617 2835 c-408 -77 -728 -374 -834 -773 -23 -85 -26 -117 -26 -262 -1 -148 2 -175 26 -264 99 -370 385 -654 756 -754 85 -23 115 -26 261 -26 146 0 176 3 261 26 372 100 657 385 756 754 23 88 26 117 26 264 0 146 -3 176 -26 262 -99 371 -387 659 -756 755 -123 32 -327 40 -444 18z m408 -164 c314 -83 559 -328 647 -646 17 -65 22 -107 22 -225 0 -164 -18 -250 -78 -377 -117 -246 -328 -422 -591 -495 -115 -31 -335 -31 -450 0 -318 87 -560 329 -647 647 -17 65 -22 107 -22 225 0 118 5 160 22 225 94 342 357 587 708 660 97 20 285 13 389 -14z"/>
    <path d="M1705 2544 c-11 -2 -45 -9 -75 -15 -261 -52 -493 -283 -561 -559 -18 -71 -18 -269 0 -340 68 -275 286 -493 561 -561 31 -8 106 -14 170 -14 64 0 139 6 170 14 275 68 493 286 561 561 18 71 18 269 0 340 -67 268 -276 484 -540 555 -56 15 -248 28 -286 19z m220 -159 c269 -57 475 -310 475 -585 0 -323 -277 -600 -600 -600 -275 0 -528 206 -585 475 -43 204 15 397 164 546 149 149 342 207 546 164z"/>
    <path d="M1695 2236 c-225 -56 -375 -282 -337 -506 33 -191 181 -339 372 -372 294 -50 562 218 512 512 -44 258 -298 428 -547 366z"/>
    <path d="M1 823 l-1 -823 823 1 c492 1 796 5 757 10 -820 105 -1464 749 -1569 1569 -5 39 -9 -265 -10 -757z"/>
    <path d="M3590 1604 c0 -20 -11 -91 -25 -158 -153 -760 -774 -1336 -1545 -1435 -39 -5 265 -9 758 -10 l822 -1 0 820 c0 451 -2 820 -5 820 -3 0 -5 -16 -5 -36z"/>
  </g>
</svg>
